<svg width="20" height="20" viewBox="0 0 20 20" fill="none" xmlns="http://www.w3.org/2000/svg">
<path d="M8.00307 19H0.00512031V10.4206C-0.0324287 9.18692 0.136542 8.02804 0.512033 6.94392C0.925072 5.85981 1.48831 4.90654 2.20174 4.08411C2.91517 3.26168 3.76003 2.58878 4.7363 2.06542C5.75013 1.50467 6.83905 1.14953 8.00307 1V4.70094C6.57621 5.18692 5.59993 5.91589 5.07424 6.88785C4.54856 7.82243 4.28571 8.98131 4.28571 10.3645H8.00307V19ZM20 19H12.002V10.4206C11.9645 9.18692 12.1335 8.02804 12.509 6.94392C12.922 5.85981 13.4852 4.90654 14.1987 4.08411C14.9121 3.26168 15.757 2.58878 16.7332 2.06542C17.7471 1.50467 18.836 1.14953 20 1V4.70094C18.5731 5.18692 17.5969 5.91589 17.0712 6.88785C16.5455 7.82243 16.2826 8.98131 16.2826 10.3645H20V19Z" fill="#C80D3A"/>
</svg>
