<svg width="263" height="48" viewBox="0 0 263 48" fill="none" xmlns="http://www.w3.org/2000/svg" itemprop="https://www.istitutomarangonimiami.com/">
    <path d="M241.1 0C233.538 0 226.873 3.81793 222.936 9.62207H224.441V11.7319C225.146 10.9109 226.722 9.07034 230.263 9.07034C233.645 9.07034 234.865 10.3239 235.961 11.4582C237.142 10.4783 238.792 9.07034 242.054 9.07034C245.436 9.07034 247.166 10.752 247.792 12.0011C248.302 13.0957 248.342 14.5037 248.342 16.6974V29.9917H242.374V19.2794C242.374 18.1054 242.374 16.5826 242.134 15.797C241.584 14.0756 239.973 13.9608 239.502 13.9608C238.908 13.9608 238.127 14.1153 237.528 14.5876C236.392 15.488 236.392 16.6577 236.392 18.8866V29.9917H230.418V17.9112C230.418 17.0108 230.378 15.797 229.824 15.0201C229.358 14.389 228.453 13.9652 227.467 13.9652C226.997 13.9652 226.367 14.08 225.817 14.4331C224.481 15.3335 224.441 16.9754 224.441 18.3834V29.9961H220.833C224.095 37.9454 231.941 43.5509 241.1 43.5509C253.197 43.5509 263 33.8008 263 21.7777C263 9.75007 253.197 0 241.1 0Z" fill="#231F20"></path>
    <path d="M0 11.6084H3.97617V14.7025H0V11.6084ZM0 16.3885H3.97617V29.9918H0V16.3885Z" fill="#231F20"></path>
    <path d="M7.83231 25.4147C8.93285 26.4829 10.2908 27.2862 11.8085 27.2862C12.7759 27.2862 14.2403 26.9728 14.2403 25.962C14.2403 25.4942 13.9519 25.3132 13.7167 25.1808C13.1176 24.8674 12.1768 24.7924 11.3913 24.66C10.7922 24.554 10.1621 24.4216 9.55857 24.2451C8.72428 24.0112 7.88556 23.6757 7.28647 23.0754C6.68294 22.4796 6.2658 21.5394 6.2658 20.5243C6.2658 18.2865 8.20063 15.9736 12.0171 15.9736C15.2344 15.9736 17.1692 17.3507 18.11 18.004L15.6249 20.2903C14.3424 19.3016 13.1398 18.9353 12.199 18.9353C10.6281 18.9353 10.2642 19.562 10.2642 19.9505C10.2642 20.7317 11.1251 20.8862 12.4342 21.1201C15.1811 21.6145 18.3718 22.3427 18.3718 25.5692C18.3718 28.7648 15.1279 30.3273 11.9105 30.3273C8.12076 30.3273 6.1593 28.5088 5.29395 27.7011L7.83231 25.4147Z" fill="#231F20"></path>
    <path d="M21.1009 12.4912H25.0993V16.7285H27.7397V19.1737H25.0727V25.2824C25.046 26.1166 25.046 26.8184 26.12 26.8184L27.5578 26.7654V29.8816C26.6924 30.0096 26.1688 30.089 25.4366 30.089C24.052 30.089 22.5343 30.0096 21.6734 28.7649C21.1231 27.9616 21.0965 26.9949 21.0965 25.6929V19.1472H19.1084V16.702H21.0965V12.4912H21.1009Z" fill="#231F20"></path>
    <path d="M29.5684 11.6084H33.5445V14.7025H29.5684V11.6084ZM29.5684 16.3885H33.5445V29.9918H29.5684V16.3885Z" fill="#231F20"></path>
    <path d="M37.0545 12.4912H41.0529V16.7285H43.6933V19.1737H41.0262V25.2824C40.9996 26.1166 40.9996 26.8184 42.0735 26.8184L43.5113 26.7654V29.8816C42.6504 30.0096 42.1268 30.089 41.3946 30.089C40.0056 30.089 38.4923 30.0096 37.6314 28.7649C37.0811 27.9616 37.0545 26.9949 37.0545 25.6929V19.1472H35.0664V16.702H37.0545V12.4912Z" fill="#231F20"></path>
    <path d="M53.5765 16.415H57.6015V29.9919H53.5765V28.6898C53.1815 29.1312 52.9463 29.3916 52.2141 29.7535C51.4064 30.1684 50.5189 30.3759 49.6269 30.3759C48.7349 30.3759 47.0886 30.2479 46.1478 28.9458C45.4466 27.9571 45.3135 27.1538 45.3135 24.9425V16.415H49.3695V24.841C49.3695 25.4368 49.3695 26.0371 49.6846 26.4564C49.9198 26.7698 50.4701 27.1317 51.2777 27.1317C51.5129 27.1317 52.0632 27.1317 52.6623 26.7919C53.5276 26.271 53.5543 25.5957 53.5809 24.8675V16.415H53.5765Z" fill="#231F20"></path>
    <path d="M61.094 12.4912H65.0968V16.7285H67.7372V19.1737H65.0702V25.2824C65.0436 26.1166 65.0435 26.8184 66.113 26.8184L67.5508 26.7654V29.8816C66.6855 30.0096 66.1663 30.089 65.4341 30.089C64.0495 30.089 62.5318 30.0096 61.6709 28.7649C61.1206 27.9616 61.0984 26.9949 61.0984 25.6929V19.1472H59.1104V16.702H61.0984V12.4912H61.094Z" fill="#231F20"></path>
    <path d="M83.0377 23.1766C83.0377 26.6105 81.0496 30.3799 75.7155 30.3799C71.8724 30.3799 68.3711 28.1951 68.3711 23.1766C68.3711 19.0188 71.0115 15.7129 76.2391 15.9998C81.8084 16.3087 83.0377 20.7093 83.0377 23.1766ZM73.1017 20.4974C72.6047 21.2787 72.4227 22.2188 72.4227 23.1545C72.4227 25.3129 73.47 27.2108 75.7199 27.2108C77.8944 27.2108 78.9639 25.4674 78.9639 23.3355C78.9639 21.826 78.5955 20.6563 77.8367 19.9281C76.998 19.1468 76.0572 19.1203 75.4803 19.1733C74.3309 19.2527 73.6475 19.6412 73.1017 20.4974Z" fill="#231F20"></path>
    <path d="M89.0737 17.849C89.5441 17.3017 90.587 16.0791 92.9434 16.0791C95.1978 16.0791 96.0054 16.9133 96.7376 17.6681C97.5231 17.0192 98.6192 16.0791 100.789 16.0791C103.035 16.0791 104.189 17.2002 104.606 18.03C104.947 18.7583 104.974 19.694 104.974 21.1505V29.9958H100.998V22.8675C100.998 22.0863 100.998 21.0711 100.843 20.5503C100.479 19.4071 99.4091 19.3277 99.0896 19.3277C98.6991 19.3277 98.1755 19.4292 97.7849 19.7425C97.0261 20.3428 97.0261 21.1197 97.0261 22.6027V29.9914H93.0544V21.9539C93.0544 21.358 93.0277 20.5503 92.6638 20.0294C92.3488 19.6146 91.7452 19.3277 91.0973 19.3277C90.7823 19.3277 90.3651 19.4027 89.9968 19.641C89.1048 20.2413 89.0826 21.3315 89.0826 22.2672V29.9914H85.1064V16.441H89.0826V17.849H89.0737Z" fill="#231F20"></path>
    <path d="M107.082 20.2679C107.162 19.3278 107.286 18.2111 108.52 17.2489C109.775 16.2602 111.395 16.0527 112.988 16.0527C114.666 16.0527 118.713 16.4411 118.713 19.9545V27.8596C118.713 29.3162 118.793 29.5236 119.108 29.9915H115.158V28.7424C114.138 29.4971 112.988 30.3534 110.974 30.3534C107.841 30.3534 106.505 28.12 106.505 26.2177C106.505 24.0329 108.262 22.7882 109.385 22.3203C110.481 21.8525 113.073 21.3846 114.772 21.0712V20.3429C114.723 19.7206 114.67 18.6789 113.232 18.6789C111.453 18.6789 111.218 19.7736 111.111 20.2679H107.082ZM112.181 24.3463C111.502 24.6067 110.454 24.9951 110.454 26.0367C110.454 26.6856 111.027 27.4138 111.972 27.4138C112.469 27.4138 112.94 27.2329 113.357 26.9725C114.692 26.1383 114.746 24.8936 114.772 23.49L112.181 24.3463Z" fill="#231F20"></path>
    <path d="M124.833 17.8232C125.725 17.0685 126.688 16.4682 128.778 16.2607V19.8006L127.442 20.0081C125.512 20.3435 124.935 20.6304 124.935 22.3474V29.9921H120.905V16.3887H124.828V17.8232H124.833Z" fill="#231F20"></path>
    <path d="M130.117 20.2679C130.197 19.3278 130.326 18.2111 131.56 17.2489C132.811 16.2602 134.435 16.0527 136.033 16.0527C137.701 16.0527 141.757 16.4411 141.757 19.9545V27.8596C141.757 29.3162 141.837 29.5236 142.152 29.9915H138.203V28.7424C137.182 29.4971 136.033 30.3534 134.018 30.3534C130.876 30.3534 129.545 28.12 129.545 26.2177C129.545 24.0329 131.298 22.7882 132.421 22.3203C133.521 21.8525 136.108 21.3846 137.812 21.0712V20.3429C137.759 19.7206 137.701 18.6789 136.264 18.6789C134.489 18.6789 134.253 19.7736 134.151 20.2679H130.117ZM135.221 24.3463C134.537 24.6067 133.499 24.9951 133.499 26.0367C133.499 26.6856 134.067 27.4138 135.012 27.4138C135.509 27.4138 135.98 27.2329 136.401 26.9725C137.732 26.1383 137.786 24.8936 137.812 23.49L135.221 24.3463Z" fill="#231F20"></path>
    <path d="M148.051 17.6416C148.441 17.2223 148.699 16.9133 149.409 16.5734C150.039 16.313 150.922 16.0791 151.889 16.0791C152.701 16.0791 153.62 16.238 154.326 16.6264C155.763 17.3812 156.127 18.6038 156.127 20.7092V29.9958H152.129V22.3467C152.129 21.1241 152.102 20.6783 151.947 20.3163C151.636 19.5881 150.926 19.2747 150.145 19.2747C148.024 19.2747 148.024 20.9652 148.024 22.6557V29.9914H143.999V16.441H148.055V17.6416H148.051Z" fill="#231F20"></path>
    <path d="M167.123 28.1994C166.333 28.7202 165.37 29.3426 163.515 29.3426C162.393 29.3426 161.292 29.0557 160.405 28.4598C158.572 27.2858 157.866 25.1804 157.866 22.8411C157.866 20.1134 159.149 16.1807 163.671 16.1807C165.765 16.1807 166.728 17.0943 167.332 17.6637V16.3881H171.099V29.4441C171.042 30.9271 170.993 32.6706 169 33.8138C167.616 34.6436 165.579 34.8554 164.354 34.8554C161.629 34.8554 159.854 33.9197 159.118 33.1649C158.044 32.1012 158.07 30.7241 158.07 29.9958H162.233C162.277 30.5961 162.335 31.4524 163.404 31.9467C163.666 32.0747 164.057 32.2071 164.683 32.2071C167.119 32.2071 167.119 30.7771 167.119 29.6604V28.1994H167.123ZM162.02 22.8146C162.02 23.9578 162.104 26.328 164.585 26.328C166.626 26.328 167.097 24.7434 167.097 22.8146C167.097 22.1658 167.043 20.8151 166.6 20.1619C166.285 19.6676 165.552 19.1202 164.403 19.1732C162.499 19.2527 162.02 20.8902 162.02 22.8146Z" fill="#231F20"></path>
    <path d="M187.484 23.1766C187.484 26.6105 185.495 30.3799 180.166 30.3799C176.318 30.3799 172.812 28.1951 172.812 23.1766C172.812 19.0188 175.457 15.7129 180.685 15.9998C186.254 16.3087 187.484 20.7093 187.484 23.1766ZM177.552 20.4974C177.055 21.2787 176.869 22.2188 176.869 23.1545C176.869 25.3129 177.916 27.2108 180.166 27.2108C182.336 27.2108 183.405 25.4674 183.405 23.3355C183.405 21.826 183.041 20.6563 182.278 19.9281C181.444 19.1468 180.503 19.1203 179.926 19.1733C178.777 19.2527 178.093 19.6412 177.552 20.4974Z" fill="#231F20"></path>
    <path d="M193.306 17.6416C193.697 17.2223 193.958 16.9133 194.66 16.5734C195.285 16.313 196.177 16.0791 197.145 16.0791C197.961 16.0791 198.867 16.238 199.572 16.6264C201.014 17.3812 201.378 18.6038 201.378 20.7092V29.9958H197.376V22.3467C197.376 21.1241 197.353 20.6783 197.194 20.3163C196.878 19.5881 196.173 19.2747 195.392 19.2747C193.266 19.2747 193.266 20.9652 193.266 22.6557V29.9914H189.241V16.441H193.297V17.6416H193.306Z" fill="#231F20"></path>
    <path d="M203.61 11.6084H207.582V14.7025H203.61V11.6084ZM203.61 16.3885H207.582V29.9918H203.61V16.3885Z" fill="#231F20"></path>
    <path d="M32.1329 41.5121V44.2045C32.1329 44.5797 32.306 44.668 32.5678 44.668C32.6876 44.668 33.1536 44.6591 33.1536 44.6591V45.9435C33.0471 45.9656 32.7098 46.0318 32.1019 46.0318C31.1921 46.0318 30.4865 45.7538 30.4865 44.4384V41.5077H29.6611V40.4969H30.4865V38.7402H32.1329V40.5058H33.2379V41.5165H32.1329V41.5121Z" fill="#231F20"></path>
    <path d="M37.5421 45.9873V42.9462C37.5421 42.3636 37.511 41.6221 36.6856 41.6221C35.9934 41.6221 35.7848 42.1385 35.7848 43.0212V45.9829H34.1162V38.3779H35.7848V40.9644C36.4016 40.2847 37.0762 40.2097 37.4001 40.2097C38.5717 40.2097 39.1974 40.9423 39.1974 42.1385V45.9873H37.5421Z" fill="#231F20"></path>
    <path d="M41.9717 43.5155V43.5817C41.9717 44.3365 42.4909 44.9191 43.263 44.9191C44.0529 44.9191 44.5189 44.3806 44.692 43.9172L45.9478 44.5616C45.3088 45.6297 44.3014 46.1903 43.1299 46.1903C41.4081 46.1903 40.2676 45.1 40.2676 43.2816C40.2676 41.8692 40.9599 40.1875 43.1698 40.1875C45.2955 40.1875 46.01 41.878 46.01 43.4405V43.5155H41.9717ZM44.2926 42.4827C44.2704 41.8559 43.8488 41.3748 43.1654 41.3748C42.3755 41.3748 42.0515 42.0325 41.9717 42.4827H44.2926Z" fill="#231F20"></path>
    <path d="M53.6642 41.9668C53.2959 41.6667 52.7545 41.4063 52.222 41.4063C51.8625 41.4063 51.4409 41.5254 51.4409 41.8388C51.4409 42.108 51.7028 42.1963 52.364 42.3243L52.7634 42.3994C53.9882 42.6245 54.8003 43.1232 54.8003 44.1649C54.8003 45.564 53.3048 46.1246 52.1243 46.1246C50.7176 46.1246 49.7945 45.4802 49.3818 45.0344L50.4336 44.0854C50.8463 44.518 51.472 44.8623 52.08 44.8623C52.6347 44.8623 53.0873 44.668 53.0873 44.3105C53.0873 43.9972 52.7944 43.9133 52.1865 43.8162L51.6761 43.7279C50.3315 43.5028 49.7812 42.9202 49.7812 42.0595C49.7812 41.1017 50.5845 40.1748 52.1776 40.1748C53.1406 40.1748 54.0104 40.497 54.6893 41.0134L53.6642 41.9668Z" fill="#231F20"></path>
    <path d="M60.7294 44.6586C60.0904 45.7665 59.0831 46.1681 58.2177 46.1681C56.8953 46.1681 55.4131 45.3295 55.4131 43.2153C55.4131 40.9643 56.9752 40.1963 58.2532 40.1963C58.7635 40.1963 59.8774 40.3022 60.6673 41.5557L59.4336 42.2575C59.2828 41.9441 58.9766 41.4719 58.3287 41.4719C57.4411 41.4719 57.126 42.4826 57.126 43.1624C57.126 43.873 57.4633 44.8528 58.3819 44.8528C59.0298 44.8528 59.3582 44.3673 59.478 44.0142L60.7294 44.6586Z" fill="#231F20"></path>
    <path d="M64.8341 45.9873V42.9462C64.8341 42.3636 64.803 41.6221 63.9776 41.6221C63.2853 41.6221 63.0768 42.1385 63.0768 43.0212V45.9829H61.4082V38.3779H63.0768V40.9644C63.6936 40.2847 64.3681 40.2097 64.6921 40.2097C65.8636 40.2097 66.4894 40.9423 66.4894 42.1385V45.9873H64.8341Z" fill="#231F20"></path>
    <path d="M70.5989 46.1594C69.1255 46.1594 67.5635 45.3605 67.5635 43.1403C67.5635 41.7191 68.4288 40.1875 70.5412 40.1875C72.9153 40.1875 73.6387 41.825 73.6387 43.1712C73.6431 44.9941 72.4938 46.1594 70.5989 46.1594ZM70.5323 41.5028C69.9021 41.5028 69.2409 41.9751 69.2409 43.1536C69.2409 44.0893 69.6403 44.8352 70.6166 44.8352C71.5397 44.8352 71.9479 44.0716 71.9479 43.2286C71.9524 42.0325 71.442 41.5028 70.5323 41.5028Z" fill="#231F20"></path>
    <path d="M77.3703 46.1594C75.897 46.1594 74.335 45.3605 74.335 43.1403C74.335 41.7191 75.2003 40.1875 77.3127 40.1875C79.6868 40.1875 80.4102 41.825 80.4102 43.1712C80.4146 44.9941 79.2652 46.1594 77.3703 46.1594ZM77.3038 41.5028C76.6736 41.5028 76.0124 41.9751 76.0124 43.1536C76.0124 44.0893 76.4118 44.8352 77.3881 44.8352C78.3111 44.8352 78.7194 44.0716 78.7194 43.2286C78.7238 42.0325 78.2135 41.5028 77.3038 41.5028Z" fill="#231F20"></path>
    <path d="M81.5107 45.9873V38.3779H83.1704V45.9873H81.5107Z" fill="#231F20"></path>
    <path d="M90.4709 46.1594C88.9976 46.1594 87.4355 45.3605 87.4355 43.1403C87.4355 41.7191 88.3009 40.1875 90.4132 40.1875C92.7874 40.1875 93.5108 41.825 93.5108 43.1712C93.5152 44.9941 92.3658 46.1594 90.4709 46.1594ZM90.4044 41.5028C89.7742 41.5028 89.113 41.9751 89.113 43.1536C89.113 44.0893 89.5124 44.8352 90.4887 44.8352C91.4117 44.8352 91.82 44.0716 91.82 43.2286C91.8244 42.0325 91.3141 41.5028 90.4044 41.5028Z" fill="#231F20"></path>
    <path d="M96.515 41.5029V45.9873H94.8553V41.5029H93.9678V40.4922H94.8553V39.68C94.8553 38.709 95.5831 38.2588 96.555 38.2588C96.9455 38.2588 97.4869 38.3471 97.5534 38.3559V39.605H97.2517C96.5594 39.605 96.5061 39.7462 96.5061 40.1567V40.4922H97.62V41.5029H96.515Z" fill="#231F20"></path>
    <path d="M103.513 41.5029V45.9873H101.853V41.5029H100.966V40.4922H101.853V39.68C101.853 38.709 102.581 38.2588 103.553 38.2588C103.944 38.2588 104.485 38.3471 104.551 38.3559V39.605H104.25C103.557 39.605 103.504 39.7462 103.504 40.1567V40.4922H104.618V41.5029H103.513Z" fill="#231F20"></path>
    <path d="M108.759 45.9872V45.4796C108.315 45.7709 107.893 46.1372 107.023 46.1372C105.732 46.1372 105.173 45.2324 105.173 44.4247C105.173 43.7229 105.661 43.1005 106.367 42.8092C106.757 42.6459 107.352 42.5311 108.599 42.2928V41.975C108.599 41.7808 108.568 41.2953 107.96 41.2953C107.254 41.2953 107.125 41.7058 107.081 41.9529H105.412C105.412 40.7127 106.562 40.2051 107.796 40.2051C108.772 40.2051 110.232 40.4655 110.232 41.8205V45.1088C110.232 45.5943 110.254 45.7753 110.396 45.9827H108.759V45.9872ZM107.525 43.6478C106.952 43.8332 106.81 44.1025 106.81 44.3496C106.81 44.5438 106.975 44.919 107.449 44.919C108.097 44.919 108.599 44.3364 108.599 43.5419V43.2947L107.525 43.6478Z" fill="#231F20"></path>
    <path d="M115.269 41.9668C114.9 41.6667 114.359 41.4063 113.826 41.4063C113.467 41.4063 113.045 41.5254 113.045 41.8388C113.045 42.108 113.307 42.1963 113.968 42.3243L114.368 42.3994C115.593 42.6245 116.405 43.1232 116.405 44.1649C116.405 45.564 114.909 46.1246 113.729 46.1246C112.322 46.1246 111.399 45.4802 110.986 45.0344L112.038 44.0854C112.451 44.518 113.076 44.8623 113.684 44.8623C114.239 44.8623 114.692 44.668 114.692 44.3105C114.692 43.9972 114.399 43.9133 113.791 43.8162L113.281 43.7279C111.936 43.5028 111.386 42.9202 111.386 42.0595C111.386 41.1017 112.189 40.1748 113.782 40.1748C114.745 40.1748 115.615 40.497 116.294 41.0134L115.269 41.9668Z" fill="#231F20"></path>
    <path d="M120.816 45.9873V42.9462C120.816 42.3636 120.784 41.6221 119.959 41.6221C119.267 41.6221 119.058 42.1385 119.058 43.0212V45.9829H117.39V38.3779H119.058V40.9644C119.675 40.2847 120.35 40.2097 120.674 40.2097C121.845 40.2097 122.471 40.9423 122.471 42.1385V45.9873H120.816Z" fill="#231F20"></path>
    <path d="M123.949 39.6584V38.374H125.609V39.6584H123.949ZM123.949 45.9878V40.3602H125.609V45.9834H123.949V45.9878Z" fill="#231F20"></path>
    <path d="M129.744 46.1594C128.271 46.1594 126.709 45.3605 126.709 43.1403C126.709 41.7191 127.574 40.1875 129.687 40.1875C132.061 40.1875 132.784 41.825 132.784 43.1712C132.789 44.9941 131.644 46.1594 129.744 46.1594ZM129.682 41.5028C129.052 41.5028 128.391 41.9751 128.391 43.1536C128.391 44.0893 128.79 44.8352 129.767 44.8352C130.69 44.8352 131.098 44.0716 131.098 43.2286C131.098 42.0325 130.592 41.5028 129.682 41.5028Z" fill="#231F20"></path>
    <path d="M137.266 45.9876V42.5183C137.266 41.9887 137.115 41.5473 136.441 41.5473C135.673 41.5473 135.562 42.0858 135.562 42.8405V45.9876H133.894V40.36H135.584V40.8543C135.855 40.5321 136.388 40.2188 137.177 40.2188C138.327 40.2188 138.935 40.8014 138.935 41.9445V45.9876H137.266Z" fill="#231F20"></path>
    <path d="M141.904 44.1729V45.6471C141.904 46.9182 141.416 47.5229 140.182 47.8451V47.0815C140.715 46.8873 140.79 46.4901 140.83 45.9825H140.169V44.1729H141.904Z" fill="#231F20"></path>
    <path d="M149.617 45.9872V45.4796C149.173 45.7709 148.752 46.1372 147.882 46.1372C146.59 46.1372 146.031 45.2324 146.031 44.4247C146.031 43.7229 146.519 43.1005 147.225 42.8092C147.616 42.6459 148.21 42.5311 149.457 42.2928V41.975C149.457 41.7808 149.426 41.2953 148.818 41.2953C148.113 41.2953 147.984 41.7058 147.939 41.9529H146.271C146.271 40.7127 147.42 40.2051 148.654 40.2051C149.63 40.2051 151.09 40.4655 151.09 41.8205V45.1088C151.09 45.5943 151.112 45.7753 151.254 45.9827H149.617V45.9872ZM148.383 43.6478C147.811 43.8332 147.669 44.1025 147.669 44.3496C147.669 44.5438 147.833 44.919 148.308 44.919C148.956 44.919 149.457 44.3364 149.457 43.5419V43.2947L148.383 43.6478Z" fill="#231F20"></path>
    <path d="M153.668 40.3596V40.9423C153.81 40.8231 153.961 40.673 154.329 40.523C154.786 40.3376 155.097 40.3067 155.306 40.2979V41.7632L154.751 41.8515C153.872 41.9927 153.712 42.2178 153.712 42.8225V45.9916H152.053V40.3596H153.668Z" fill="#231F20"></path>
    <path d="M158.523 41.5121V44.2045C158.523 44.5797 158.696 44.668 158.957 44.668C159.077 44.668 159.543 44.6591 159.543 44.6591V45.9435C159.437 45.9656 159.099 46.0318 158.492 46.0318C157.582 46.0318 156.876 45.7538 156.876 44.4384V41.5077H156.051V40.4969H156.876V38.7402H158.523V40.5058H159.628V41.5165H158.523V41.5121Z" fill="#231F20"></path>
    <path d="M169.195 45.987C168.72 45.987 168.294 45.9208 167.904 45.4794C167.265 45.8678 166.603 46.062 165.867 46.062C164.598 46.062 163.244 45.3205 163.244 43.7006C163.244 42.3765 164.22 41.6835 165.117 41.3084C164.877 40.92 164.62 40.4786 164.62 40.0063C164.62 38.691 165.814 38.3379 166.581 38.3379C167.371 38.3379 168.445 38.7484 168.445 39.9886C168.445 40.3638 168.294 41.2289 167.016 41.7542C167.22 42.0764 167.429 42.3677 167.633 42.6722L168.055 43.2637C168.228 42.8885 168.272 42.8002 168.423 42.1338L169.776 42.6281C169.497 43.48 169.408 43.6742 168.951 44.4378C169.155 44.7379 169.492 44.7953 169.816 44.7953H170.096V45.9914H169.195V45.987ZM165.791 42.4162L165.53 42.5884C165.17 42.8267 164.899 43.1931 164.899 43.6433C164.899 44.0538 165.192 44.7732 166.035 44.7732C166.435 44.7732 166.763 44.6099 167.109 44.4157L165.791 42.4162ZM166.55 39.4855C166.28 39.4855 166.009 39.6355 166.009 39.9401C166.009 40.1873 166.138 40.3594 166.377 40.7611C166.701 40.5889 167.083 40.3064 167.083 39.9533C167.083 39.64 166.834 39.4855 166.55 39.4855Z" fill="#231F20"></path>
    <path d="M177.841 45.9873V45.4577C177.224 46.0844 176.638 46.1374 176.336 46.1374C175.005 46.1374 173.887 45.1134 173.887 43.2154C173.887 41.547 174.712 40.2097 176.248 40.2097C177.037 40.2097 177.526 40.6069 177.743 40.779V38.3779H179.358V45.9873H177.841ZM176.651 44.9059C177.734 44.9059 177.779 43.4847 177.779 43.2154C177.779 42.5137 177.65 41.4499 176.74 41.4499C175.853 41.4499 175.582 42.4077 175.582 43.2066C175.577 43.701 175.684 44.9059 176.651 44.9059Z" fill="#231F20"></path>
    <path d="M182.145 43.5155V43.5817C182.145 44.3365 182.664 44.9191 183.436 44.9191C184.226 44.9191 184.692 44.3806 184.865 43.9172L186.121 44.5616C185.482 45.6297 184.474 46.1903 183.303 46.1903C181.581 46.1903 180.44 45.1 180.44 43.2816C180.44 41.8692 181.133 40.1875 183.343 40.1875C185.468 40.1875 186.183 41.878 186.183 43.4405V43.5155H182.145ZM184.461 42.4827C184.439 41.8559 184.017 41.3748 183.334 41.3748C182.544 41.3748 182.22 42.0325 182.14 42.4827H184.461Z" fill="#231F20"></path>
    <path d="M190.67 41.9668C190.302 41.6667 189.76 41.4063 189.228 41.4063C188.868 41.4063 188.447 41.5254 188.447 41.8388C188.447 42.108 188.709 42.1963 189.37 42.3243L189.769 42.3994C190.994 42.6245 191.806 43.1232 191.806 44.1649C191.806 45.564 190.311 46.1246 189.13 46.1246C187.723 46.1246 186.8 45.4802 186.388 45.0344L187.439 44.0854C187.852 44.518 188.478 44.8623 189.086 44.8623C189.641 44.8623 190.093 44.668 190.093 44.3105C190.093 43.9972 189.8 43.9133 189.192 43.8162L188.682 43.7279C187.337 43.5028 186.787 42.9202 186.787 42.0595C186.787 41.1017 187.59 40.1748 189.183 40.1748C190.146 40.1748 191.016 40.497 191.695 41.0134L190.67 41.9668Z" fill="#231F20"></path>
    <path d="M192.804 39.6584V38.374H194.463V39.6584H192.804ZM192.804 45.9878V40.3602H194.463V45.9834H192.804V45.9878Z" fill="#231F20"></path>
    <path d="M201.041 40.3593V45.8456C201.041 47.311 200.078 47.9996 198.236 47.9996C196.709 47.9996 195.649 47.386 195.649 46.159V45.9869H197.371C197.371 46.362 197.535 46.9049 198.4 46.9049C199.017 46.9049 199.385 46.6445 199.385 46.0089V45.2454C199.008 45.4925 198.658 45.7309 197.903 45.7309C196.98 45.7309 195.564 45.2012 195.564 43.0164C195.564 41.3347 196.55 40.2666 197.903 40.2666C198.729 40.2666 199.172 40.5888 199.474 40.8801V40.3637H201.041V40.3593ZM198.298 41.5025C197.335 41.5025 197.282 42.5927 197.282 42.9458C197.282 43.7447 197.433 44.4641 198.342 44.4641C199.328 44.4641 199.381 43.5681 199.381 42.9987C199.381 42.2881 199.274 41.5025 198.298 41.5025Z" fill="#231F20"></path>
    <path d="M205.891 45.9876V42.5183C205.891 41.9887 205.74 41.5473 205.066 41.5473C204.298 41.5473 204.187 42.0858 204.187 42.8405V45.9876H202.519V40.36H204.209V40.8543C204.48 40.5321 205.013 40.2188 205.802 40.2188C206.952 40.2188 207.56 40.8014 207.56 41.9445V45.9876H205.891Z" fill="#231F20"></path>
</svg>